<?xml version="1.0" encoding="UTF-8"?>
<svg id="Layer_2" data-name="Layer 2" xmlns="http://www.w3.org/2000/svg" viewBox="0 0 277.55 133.61">
  <defs>
    <style>
      .cls-1 {
        fill: #b92025;
      }

      .cls-2 {
        fill: #fff;
      }
    </style>
  </defs>
  <g id="Layer_1-2" data-name="Layer 1">
    <g id="Artwork_9" data-name="Artwork 9">
      <g>
        <path class="cls-2" d="M0,100.27L40.8,0h15.51s7.42-.06,9.78,7.95c2.71,9.21,8.98,31.21,8.98,31.21L108.39,7.54s6.94-6.71,12.37-7.18c5.43-.47,22.93-.12,22.93-.12l-54.16,133.31h-29.24l35.12-82.42-31.24,30.46s-.03.03-.08.08c-3.86,3.53-7.28,1.11-8.15-2.56l-6.62-28.09-20.38,49.18-28.93.05Z"/>
        <polygon class="cls-2" points="146.66 .25 215.26 .25 205.43 24.84 163.25 24.84 158.07 37.7 193.64 37.7 183.99 61.65 148.6 61.65 142.88 74.52 185.45 74.52 175.05 100.43 105.98 100.43 146.66 .25"/>
        <path class="cls-2" d="M275.66,13.65c-3.42-8.5-12.68-13.4-21.62-13.4h-35.81l-40.21,100.18h48.68c23.59.12,31.63-21.8,31.63-21.8,0,0,14.12-34.31,16.98-42.35,2.56-7.2,3.26-15.41.35-22.63M245.82,31.63l-15.19,38.24c-4.01,10.5-10.19,10.19-10.19,10.19h-5.18l22.34-56.83h5.12c.82,0,1.65.15,2.37.54,3.6,1.94.73,7.86.73,7.86"/>
        <path class="cls-1" d="M112.17,0c-2.09,1.21-3.42,2.2-4.36,3.16-4.24,4.32-7.51,7.53-11.66,11.51-3.86,3.69-7.72,7.37-11.59,11.04-2.48,2.35-4.96,4.7-7.44,7.05-.17.16-.33.32-.5.47l-7.09-25.47s-2.17-6.44-4.03-7.77h46.67Z"/>
        <path class="cls-2" d="M123.92,111.14c1.14,1.33,1.43,3.24.87,5.72,0,.04-.02.12-.05.24-.03.12-.06.2-.08.24-.17.52-.48.87-.94,1.07s-.95.29-1.48.29h-5.75l.9-2.26c.17-.39.18-.72.02-1-.16-.28-.44-.42-.82-.42-.54,0-.93.1-1.16.31-.24.2-.46.59-.68,1.15l-4.04,10.01c-.32.82-.41,1.35-.27,1.58.14.24.41.36.82.36.47,0,.86-.1,1.16-.31.3-.2.56-.58.77-1.11l.94-2.32h5.91c.49,0,.87.1,1.13.29.26.19.29.54.1,1.03-.07.17-.13.33-.21.48-.08.15-.15.31-.21.48-.6,1.46-1.2,2.64-1.79,3.52-.59.88-1.24,1.56-1.94,2.02-.7.46-1.49.76-2.36.9-.87.14-1.88.21-3.02.21h-3.26c-.93,0-1.81-.13-2.65-.4-.84-.27-1.52-.73-2.03-1.37-.52-.65-.81-1.5-.87-2.57-.06-1.07.22-2.39.84-3.99l1.23-3.07c.37-.9.76-1.89,1.19-2.97.43-1.08.86-2.14,1.29-3.2.41-1.03.91-1.97,1.52-2.83.6-.85,1.3-1.58,2.1-2.18.8-.6,1.68-1.07,2.65-1.4.97-.33,2.02-.5,3.16-.5h1.42c2.58,0,4.45.67,5.59,2"/>
        <path class="cls-2" d="M140.1,109.14c1.44,0,2.67.22,3.68.65,1.01.43,1.78,1.07,2.29,1.9.52.84.77,1.87.76,3.08-.01,1.22-.32,2.6-.92,4.15-.56,1.51-1.11,2.91-1.66,4.21-.55,1.3-1.09,2.58-1.63,3.83-.6,1.46-1.2,2.64-1.79,3.52-.59.88-1.24,1.56-1.94,2.02-.7.46-1.48.76-2.36.9-.87.14-1.88.21-3.02.21h-3.26c-.93,0-1.81-.13-2.65-.4-.84-.27-1.52-.73-2.03-1.37-.52-.65-.81-1.5-.87-2.57-.07-1.07.22-2.39.84-3.99l1.23-3.07c.37-.9.76-1.89,1.2-2.97.43-1.08.86-2.14,1.29-3.2.41-1.03.91-1.97,1.52-2.83.6-.85,1.3-1.58,2.1-2.18.8-.6,1.68-1.07,2.65-1.4.97-.33,2.02-.5,3.16-.5h1.42ZM139.16,116.43c.17-.39.18-.72.02-1-.16-.28-.44-.42-.82-.42-.54,0-.93.1-1.16.31-.24.21-.46.59-.68,1.15l-4.04,10.01c-.32.82-.41,1.35-.27,1.58.14.24.41.36.82.36.47,0,.86-.1,1.16-.31.3-.2.56-.58.78-1.11l4.2-10.56Z"/>
        <path class="cls-2" d="M174.42,109.52l-9.66,23.73h-5.07c-.54,0-1.01-.18-1.4-.55-.4-.37-.65-.83-.76-1.39l-1.62-9.72-4.75,11.66h-6.91l9.66-23.73h5.07c.54,0,1.01.18,1.4.53.4.36.65.82.76,1.4l1.61,9.72,4.75-11.66h6.91Z"/>
        <polygon class="cls-2" points="192.51 115.01 186.73 115.01 179.3 133.26 172.39 133.26 179.82 115.01 174.2 115.01 176.42 109.52 194.73 109.52 192.51 115.01"/>
        <path class="cls-2" d="M207.36,109.56c1.23.11,2.21.4,2.94.87.73.47,1.27,1.06,1.61,1.76.34.7.5,1.46.45,2.29-.04.83-.23,1.65-.55,2.47-.34.86-.75,1.6-1.23,2.21-.47.61-.97,1.15-1.5,1.6-.53.45-1.07.82-1.63,1.11-.56.29-1.1.54-1.61.76.99.32,1.6,1.01,1.84,2.07.24,1.06.08,2.28-.48,3.68l-1.97,4.88h-6.04c-.28,0-.55-.11-.82-.34-.27-.23-.32-.56-.15-1.02l2.16-5.33c.15-.39.13-.72-.06-1-.19-.28-.47-.42-.84-.42h-1.39l-3.26,8.11h-7.14l9.53-23.73h10.14v.03ZM204.32,116.43c.15-.39.15-.72-.02-1-.16-.28-.43-.42-.79-.42h-1.29l-1.52,3.71h1.32c.37,0,.74-.14,1.11-.42.38-.28.65-.61.82-1l.36-.87Z"/>
        <path class="cls-2" d="M226.41,109.14c1.44,0,2.67.22,3.68.65,1.01.43,1.78,1.07,2.29,1.9.52.84.77,1.87.76,3.08-.01,1.22-.32,2.6-.92,4.15-.56,1.51-1.11,2.91-1.66,4.21-.55,1.3-1.09,2.58-1.63,3.83-.6,1.46-1.2,2.64-1.79,3.52-.59.88-1.24,1.56-1.94,2.02-.7.46-1.48.76-2.36.9-.87.14-1.88.21-3.02.21h-3.26c-.93,0-1.81-.13-2.65-.4-.84-.27-1.52-.73-2.03-1.37-.52-.65-.81-1.5-.87-2.57-.07-1.07.22-2.39.84-3.99l1.23-3.07c.37-.9.76-1.89,1.2-2.97.43-1.08.86-2.14,1.29-3.2.41-1.03.91-1.97,1.52-2.83.6-.85,1.3-1.58,2.1-2.18.8-.6,1.68-1.07,2.65-1.4.97-.33,2.02-.5,3.16-.5h1.42ZM225.47,116.43c.17-.39.18-.72.02-1-.16-.28-.44-.42-.82-.42-.54,0-.93.1-1.16.31-.24.21-.46.59-.68,1.15l-4.04,10.01c-.32.82-.41,1.35-.27,1.58.14.24.41.36.82.36.47,0,.86-.1,1.16-.31.3-.2.56-.58.78-1.11l4.2-10.56Z"/>
        <polygon class="cls-2" points="246.43 127.77 244.2 133.26 230.19 133.26 239.84 109.52 246.75 109.52 239.36 127.77 246.43 127.77"/>
      </g>
    </g>
  </g>
</svg>